<svg xmlns="http://www.w3.org/2000/svg" viewBox="0 0 200 200" width="200" height="200">
  <defs>
    <linearGradient id="rubyGrad" x1="0%" y1="0%" x2="100%" y2="100%">
      <stop offset="0%" style="stop-color:#E53935"/>
      <stop offset="100%" style="stop-color:#CC342D"/>
    </linearGradient>
    <linearGradient id="goldGrad" x1="0%" y1="0%" x2="100%" y2="100%">
      <stop offset="0%" style="stop-color:#FFE082"/>
      <stop offset="100%" style="stop-color:#FFD700"/>
    </linearGradient>
  </defs>

  <!-- Background circle -->
  <circle cx="100" cy="100" r="95" fill="#1a1a2e"/>

  <!-- Key body (horizontal) -->
  <rect x="55" y="85" width="100" height="30" rx="6" fill="url(#goldGrad)" stroke="#B8860B" stroke-width="2"/>

  <!-- Key head (circle with hole) -->
  <circle cx="45" cy="100" r="30" fill="url(#goldGrad)" stroke="#B8860B" stroke-width="2"/>
  <circle cx="45" cy="100" r="12" fill="#1a1a2e" stroke="#B8860B" stroke-width="2"/>

  <!-- Key teeth -->
  <rect x="130" y="100" width="12" height="20" fill="url(#goldGrad)" stroke="#B8860B" stroke-width="2"/>
  <rect x="145" y="100" width="12" height="15" fill="url(#goldGrad)" stroke="#B8860B" stroke-width="2"/>

  <!-- SSH brackets -->
  <text x="30" y="55" font-family="monospace" font-size="28" font-weight="bold" fill="#CC342D">&lt;</text>
  <text x="155" y="55" font-family="monospace" font-size="28" font-weight="bold" fill="#CC342D">&gt;</text>

  <!-- Ruby gem facet accent on key head -->
  <path d="M45 80 L55 90 L45 100 L35 90 Z" fill="#CC342D" opacity="0.8"/>

  <!-- Lock outline around key -->
  <path d="M75 150 L75 135 Q75 125 85 125 L115 125 Q125 125 125 135 L125 150"
        stroke="#CC342D" stroke-width="4" fill="none" stroke-linecap="round"/>
  <rect x="70" y="148" width="60" height="35" rx="4" fill="#CC342D"/>

  <!-- Lock keyhole -->
  <circle cx="100" cy="162" r="6" fill="#1a1a2e"/>
  <rect x="97" y="162" width="6" height="12" fill="#1a1a2e"/>
</svg>
